<?xml version="1.0" encoding="UTF-8"?>
<svg width="256px" height="48px" viewBox="0 0 256 48" version="1.1" xmlns="http://www.w3.org/2000/svg" xmlns:xlink="http://www.w3.org/1999/xlink">
    <!-- Generator: Sketch 49.3 (51167) - http://www.bohemiancoding.com/sketch -->
    <title>campuses</title>
    <desc>Created with Sketch.</desc>
    <defs>
        <rect id="path-1" x="0" y="0" width="256" height="48" rx="5"></rect>
        <rect id="path-2" x="0" y="0" width="256" height="48" rx="5"></rect>
    </defs>
    <g id="Page-1" stroke="none" stroke-width="1" fill="none" fill-rule="evenodd">
        <g id="iPhone-8-Copy-8" transform="translate(-11.000000, -689.000000)">
            <g id="campuses" transform="translate(11.000000, 689.000000)">
                <g id="Rectangle-3">
                    <use fill="#000000" fill-rule="evenodd" xlink:href="#path-1"></use>
                    <rect stroke="#FFFFFF" stroke-width="2" x="1" y="1" width="254" height="46" rx="5"></rect>
                </g>
                <g id="Rectangle-3-Copy-2">
                    <use fill="#FFFFFF" fill-rule="evenodd" xlink:href="#path-2"></use>
                    <rect stroke="#000000" stroke-width="2" x="1" y="1" width="254" height="46" rx="5"></rect>
                </g>
                <g id="Group-9" transform="translate(8.000000, 11.000000)" fill="#000000" fill-rule="nonzero">
                    <path d="M2.19066937,6.86884381 L24.0973631,6.86884381 C24.3514807,6.86884381 24.5727383,6.6946856 24.6294219,6.44713996 C24.6888438,6.19849899 24.568357,5.94547667 24.3416227,5.83046653 L13.343641,0.308884381 C13.1891988,0.231115619 13.0062779,0.232210953 12.8507404,0.308884381 L1.9420284,5.83156187 C1.71638945,5.94657201 1.59809331,6.20178499 1.65724138,6.44823529 C1.71638945,6.6946856 1.93764706,6.86884381 2.19066937,6.86884381 Z" id="Shape"></path>
                    <polygon id="Shape" points="3.28600406 7.9641785 6.57200811 7.9641785 6.57200811 17.8221907 3.28600406 17.8221907"></polygon>
                    <polygon id="Shape" points="10.9533469 7.9641785 15.3346856 7.9641785 15.3346856 17.8221907 10.9533469 17.8221907"></polygon>
                    <polygon id="Shape" points="19.7160243 7.9641785 23.0020284 7.9641785 23.0020284 17.8221907 19.7160243 17.8221907"></polygon>
                    <path d="M2.19066937,19.4651927 L2.19066937,21.1081947 L24.0973631,21.1081947 L24.0973631,19.4651927 C24.0973631,19.1628803 23.8509128,18.9175254 23.5496957,18.9175254 L2.73833671,18.9175254 C2.43602434,18.9175254 2.19066937,19.1628803 2.19066937,19.4651927 Z" id="Shape"></path>
                    <path d="M25.7403651,22.2035294 L0.547667343,22.2035294 C0.24535497,22.2035294 0,22.4488844 0,22.7511968 L0,26.0372008 C0,26.3384178 0.24535497,26.5848682 0.547667343,26.5848682 L25.7403651,26.5848682 C26.0415822,26.5848682 26.2880325,26.3384178 26.2880325,26.0372008 L26.2880325,22.7511968 C26.2880325,22.4488844 26.0415822,22.2035294 25.7403651,22.2035294 Z" id="Shape"></path>
                </g>
                <text id="Campuses" font-family="ComicSansMS-Bold, Comic Sans MS" font-size="16" font-weight="bold" fill="#000000">
                    <tspan x="42" y="22">Campuses</tspan>
                </text>
                <text id="Multiplies-stones-fr" font-family="ComicSansMS, Comic Sans MS" font-size="12" font-weight="normal" fill="#000000">
                    <tspan x="42" y="38">Multiplies stones freed per tap</tspan>
                </text>
            </g>
        </g>
    </g>
</svg>