<?xml version="1.0" encoding="UTF-8"?>
<svg width="256px" height="48px" viewBox="0 0 256 48" version="1.1" xmlns="http://www.w3.org/2000/svg" xmlns:xlink="http://www.w3.org/1999/xlink">
    <!-- Generator: Sketch 49.3 (51167) - http://www.bohemiancoding.com/sketch -->
    <title>public-figure</title>
    <desc>Created with Sketch.</desc>
    <defs>
        <rect id="path-1" x="0" y="0" width="256" height="48" rx="5"></rect>
        <rect id="path-2" x="0" y="0" width="256" height="48" rx="5"></rect>
    </defs>
    <g id="Page-1" stroke="none" stroke-width="1" fill="none" fill-rule="evenodd">
        <g id="iPhone-8-Copy-8" transform="translate(-11.000000, -491.000000)">
            <g id="public-figure" transform="translate(11.000000, 491.000000)">
                <g id="Rectangle-3">
                    <use fill="#000000" fill-rule="evenodd" xlink:href="#path-1"></use>
                    <rect stroke="#FFFFFF" stroke-width="2" x="1" y="1" width="254" height="46" rx="5"></rect>
                </g>
                <g id="Rectangle-3-Copy-2">
                    <use fill="#FFFFFF" fill-rule="evenodd" xlink:href="#path-2"></use>
                    <rect stroke="#000000" stroke-width="2" x="1" y="1" width="254" height="46" rx="5"></rect>
                </g>
                <text id="Public-Figures" font-family="ComicSansMS-Bold, Comic Sans MS" font-size="16" font-weight="bold" fill="#000000">
                    <tspan x="41" y="22">Public Figures</tspan>
                </text>
                <text id="Decrease-costs-with" font-family="ComicSansMS, Comic Sans MS" font-size="12" font-weight="normal" fill="#000000">
                    <tspan x="41" y="38">Decrease costs with their influence</tspan>
                </text>
                <g id="Group" transform="translate(8.000000, 11.000000)" fill="#000000" fill-rule="nonzero">
                    <path d="M3.90625,6.31499051 C3.475,6.31499051 3.125,6.66862998 3.125,7.10436433 L3.125,7.89373814 L0.78125,7.89373814 C0.35,7.89373814 0,8.24737761 0,8.68311195 L0,13.4193548 C0,13.8550892 0.35,14.2087287 0.78125,14.2087287 L3.125,14.2087287 L3.125,14.9981025 C3.125,15.4338368 3.475,15.7874763 3.90625,15.7874763 L4.3796875,15.7874763 L7.5203125,24.2464061 C7.7125,24.7531841 8.1421875,25.1210323 8.6703125,25.2283871 C8.775,25.2504896 8.8796875,25.2615408 8.9828125,25.2615408 C9.4,25.2615408 9.796875,25.0941935 10.08125,24.7942315 L11.9578125,22.9139431 C12.4375,22.4292676 12.5515625,21.6730474 12.2453125,21.0873321 L9.6234375,15.7874763 L11.6984375,15.7874763 C11.9671875,15.8001063 12.2328125,15.8427324 12.5,15.8679924 L12.5,6.23447438 C12.2296875,6.25973435 11.9625,6.30236053 11.690625,6.31499051 L3.90625,6.31499051 Z" id="Shape"></path>
                    <path d="M24.871875,0.382056926 C24.85625,0.355218216 24.8421875,0.33311575 24.821875,0.307855787 C24.7359375,0.197343454 24.628125,0.107354839 24.4953125,0.055256167 C24.490625,0.0536774194 24.4875,0.0473624288 24.4828125,0.0457836812 C24.4671875,0.0410474383 24.453125,0.0489411765 24.4375,0.0442049336 C24.3671875,0.0236812144 24.296875,0 24.21875,0 C24.165625,0 24.11875,0.0205237192 24.0671875,0.0315749526 C24.0375,0.0378899431 24.009375,0.0394686907 23.9796875,0.0489411765 C23.8453125,0.0931461101 23.7296875,0.168925996 23.6375,0.27312334 C23.63125,0.27943833 23.621875,0.281017078 23.615625,0.287332068 C21.1796875,3.27590133 17.7828125,5.27459583 14.0625,6.00713472 L14.0625,16.0969108 C17.7828125,16.8294497 21.1796875,18.8265655 23.615625,21.8151347 C23.621875,21.8230285 23.6328125,21.826186 23.640625,21.8356584 C23.6953125,21.8972296 23.7625,21.9461708 23.834375,21.9872182 C23.8578125,22.0014269 23.8765625,22.0219507 23.9,22.0330019 C23.9984375,22.0756281 24.1046875,22.1024668 24.21875,22.1024668 C24.3078125,22.1024668 24.3953125,22.0866793 24.4828125,22.0566831 C24.4875,22.0551044 24.490625,22.0487894 24.4953125,22.0472106 C24.628125,21.995112 24.7359375,21.9067021 24.821875,21.794611 C24.840625,21.769351 24.8546875,21.7472486 24.871875,21.7204099 C24.946875,21.5988463 25,21.4646528 25,21.313093 L25,0.789373814 C25,0.637814042 24.946875,0.503620493 24.871875,0.382056926 Z" id="Shape"></path>
                </g>
            </g>
        </g>
    </g>
</svg>