<?xml version="1.0" encoding="UTF-8"?>
<svg width="26px" height="40px" viewBox="0 0 26 40" version="1.1" xmlns="http://www.w3.org/2000/svg" xmlns:xlink="http://www.w3.org/1999/xlink">
    <!-- Generator: Sketch 49.3 (51167) - http://www.bohemiancoding.com/sketch -->
    <title>Hand</title>
    <desc>Created with Sketch.</desc>
    <defs></defs>
    <g id="Page-1" stroke="none" stroke-width="1" fill="none" fill-rule="evenodd">
        <g id="iPhone-8-Copy-8" transform="translate(-18.000000, -302.000000)" fill="#000000" fill-rule="nonzero">
            <g id="protesters" transform="translate(11.000000, 295.000000)">
                <g id="Hand" transform="translate(7.000000, 7.000000)">
                    <path d="M13.9765758,15.746 C13.9103939,15.9256 13.8674545,16.11 13.8489394,16.2976 C13.8280606,16.5048 13.8335758,16.7132 13.8713939,16.9196 C13.8942424,17.0432 13.923,17.1664 13.9663333,17.2868 C14.1692121,17.8436 14.5726061,18.2864 15.1040303,18.5344 C15.3931818,18.6696 15.7004545,18.7376 16.016,18.7376 C16.4083636,18.7376 16.7837879,18.626 17.1115455,18.432 C17.2888182,18.3272 17.4515152,18.1984 17.5949091,18.0464 C17.7229394,17.9108 17.8336364,17.7564 17.9254242,17.5884 C17.9518182,17.54 17.9817576,17.4936 18.0046061,17.4424 C18.0046061,17.4424 22.3686667,7.8032 22.3781212,7.7836 C22.3871818,7.7628 22.509697,7.394 22.535697,7.2456 C22.7070606,6.2744 22.2272424,5.2692 21.3038485,4.8376 C21.0154848,4.7024 20.7082121,4.6344 20.3926667,4.6344 C19.727697,4.6344 19.1092121,4.9464 18.6987273,5.4552 C18.583303,5.5988 18.4816667,5.7552 18.4040606,5.9284 C18.4044545,5.9268 18.4048485,5.9252 18.4056364,5.924 L18.4032727,5.9288 C18.4028788,5.9292 18.4024848,5.9304 18.401697,5.9312 L14.0305455,15.588 C14.007697,15.6396 13.9954848,15.6932 13.9765758,15.746 Z" id="Shape"></path>
                    <path d="M15.9450909,5.132 C16.0376667,5.2264 16.0979394,5.3496 16.1420606,5.4844 C16.2456667,5.804 16.2283333,6.2132 16.1424545,6.628 C16.0983333,6.8396 16.0392424,7.0496 15.9683333,7.2484 C15.9415455,7.3248 15.9143636,7.402 15.8840303,7.474 C15.8395152,7.584 15.7808182,7.712 15.7130606,7.8472 C15.1205758,9.0372 13.5960303,11.0372 10.0155152,11.1612 C10.0135455,11.1612 10.0107879,11.1616 10.0088182,11.1616 L8.5169697,14.316 C9.4490303,14.5396 11.1079091,15.0684 12.5457879,16.208 L17.4089697,5.4644 C17.4885455,5.2892 17.5350303,5.1088 17.5669394,4.9268 C17.7371212,3.9544 17.2584848,2.9488 16.3350909,2.518 C16.0459394,2.3836 15.7386667,2.3148 15.4239091,2.3148 C14.7589394,2.3148 14.1408485,2.6264 13.7307576,3.1356 C13.6141515,3.2792 13.5125152,3.436 13.4337273,3.6092 C13.4345152,3.6076 13.4345152,3.6068 13.4360909,3.6052 L13.4337273,3.6092 L13.4325455,3.612 L12.818,4.97 L15.7851515,4.97 L15.9450909,5.132 Z" id="Shape"></path>
                    <path d="M10.1876667,4.9696 L10.7202727,4.9696 L11.6137273,4.9696 L12.4358788,3.15 C12.5146667,2.9748 12.5615455,2.794 12.5930606,2.6124 C12.7636364,1.6408 12.285,0.6352 11.3616061,0.204 C11.0716667,0.0696 10.7651818,0 10.4500303,0 C9.78506061,0 9.16657576,0.3124 8.75648485,0.8212 C8.64106061,0.9648 8.5390303,1.1216 8.46063636,1.2952 C8.46063636,1.296 8.45906061,1.2968 8.45906061,1.2976 L6.79939394,4.9696 L8.6170303,4.9696 L10.1876667,4.9696 Z" id="Shape"></path>
                    <path d="M25.6769697,13.3104 C25.6769697,13.0608 25.5398788,12.5444 25.5343636,12.5396 C25.2251212,11.6936 24.4293636,11.0884 23.4894242,11.0884 C23.2920606,11.0884 23.1037576,11.1236 22.9217576,11.1736 C22.6054242,11.26 22.3198182,11.4164 22.0767576,11.626 C21.7915455,11.8728 21.5717273,12.188 21.4405455,12.552 C21.4389697,12.5568 21.4381818,12.5624 21.4358182,12.5672 L18.7022727,18.5632 L18.7030606,18.5632 C18.622303,18.742 18.5817273,18.9284 18.5722727,19.114 C18.5691212,19.1804 18.5722727,19.246 18.5773939,19.3108 C18.6191515,19.8328 18.9272121,20.318 19.428303,20.552 C19.6662424,20.6636 19.922697,20.6968 20.1728485,20.6708 C20.4990303,20.6364 20.8137879,20.498 21.0560606,20.2724 C21.1722727,20.164 21.2683939,20.0324 21.3440303,19.8876 L22.7641818,16.7728 L23.757303,17.238 L23.8557879,17.0208 L22.3816667,20.278 L22.379303,20.2828 C22.3548788,20.3368 22.3253333,20.3864 22.2961818,20.4372 C22.2351212,20.5484 22.1673636,20.6564 22.0921212,20.7568 C21.9380909,20.9644 21.7533333,21.1436 21.5488788,21.294 C21.1525758,21.5872 20.6770909,21.7672 20.1724545,21.7928 C20.1287273,21.7956 20.0865758,21.8012 20.0436364,21.8012 L20.0432424,21.8012 C19.6717576,21.8012 19.3109091,21.7204 18.9705455,21.562 C18.4615758,21.3236 18.0707879,20.9356 17.8139394,20.474 C17.6902424,20.2512 17.6023939,20.0112 17.5468485,19.7616 C17.5259697,19.6684 17.5090303,19.5752 17.4983939,19.4796 C17.329,19.5676 17.1548788,19.6444 16.971697,19.7016 C16.666,19.7968 16.3441515,19.8488 16.0163939,19.8488 C16.0163939,19.8488 16.0163939,19.8488 16.016,19.8488 C15.6358485,19.8488 15.3817576,19.78 15.0268182,19.65 C15.2285152,20.3204 15.3541818,21.0612 15.3541818,21.902 L15.3541818,26.1124 L14.2602121,26.1124 L14.2602121,21.902 C14.2602121,20.8936 13.9497879,20.0396 13.630697,19.3108 C12.1360909,15.8928 7.86775758,15.3016 7.64990909,15.274 L6.89590909,15.178 L9.31706061,10.0572 L9.66175758,10.0572 C9.75315152,10.0572 9.83115152,10.0456 9.91860606,10.0432 C10.1305455,10.0368 10.341697,10.03 10.536303,10.0096 C12.623,9.79 13.7677879,8.8024 14.3728788,7.9556 C14.4252727,7.8824 14.4709697,7.8088 14.5170606,7.7364 C14.6242121,7.566 14.7136364,7.3996 14.7888788,7.2372 C14.8751515,7.052 14.9421212,6.8748 14.9925455,6.712 C15.0693636,6.4608 15.1099394,6.2424 15.1217576,6.0808 L6.06981818,6.0808 C4.98648485,6.0808 4.03945455,6.664 3.50921212,7.5368 C3.38551515,7.7408 3.28387879,7.9592 3.2090303,8.1908 L0.365575758,14.3828 L0.219424242,14.7012 C0.0791818182,15.054 0,15.4388 0,15.8432 C0,16.396 0.146939394,16.9132 0.399454545,17.3608 L0.707121212,17.8088 L7.69481818,27.2052 L7.69481818,39.9988 L20.8252121,39.9988 L20.8252121,40 L21.9191818,40 L21.9199697,30.5564 L25.3949091,23.3736 C25.4437576,23.2844 25.4906364,23.1952 25.5276667,23.0988 C25.6190606,22.8612 25.6722424,22.6048 25.6765758,22.3356 C25.6773636,22.322 25.6769697,13.3104 25.6769697,13.3104 Z" id="Shape"></path>
                </g>
            </g>
        </g>
    </g>
</svg>