<?xml version="1.0" encoding="UTF-8"?>
<svg width="55px" height="55px" viewBox="0 0 55 55" version="1.1" xmlns="http://www.w3.org/2000/svg" xmlns:xlink="http://www.w3.org/1999/xlink">
    <!-- Generator: Sketch 49.3 (51167) - http://www.bohemiancoding.com/sketch -->
    <title>mystery</title>
    <desc>Created with Sketch.</desc>
    <defs></defs>
    <g id="mystery" stroke="none" stroke-width="1" fill="none" fill-rule="evenodd">
        <path d="M30,42 C30,43.6666667 28.6666667,45 27,45 C25.3333333,45 24,43.6666667 24,42 C24,40.3333333 25.3333333,39 27,39 C28.6666667,39.0555556 30,40.3888889 30,42 Z M26.9708455,12 C21.4897959,12 17,16.5673077 17,22.2764423 C17,23.9591346 18.2827988,25.28125 19.9154519,25.28125 C21.548105,25.28125 22.8309038,23.9591346 22.8309038,22.2764423 C22.8309038,19.9326923 24.696793,18.0096154 26.9708455,18.0096154 C29.244898,18.0096154 31.1107872,19.9326923 31.1107872,22.2764423 C31.1107872,23.4182692 29.244898,24.4399038 28.4285714,24.8004808 C28.2536443,24.8605769 28.0787172,24.9807692 27.9620991,25.1009615 C24.9883382,27.2644231 23.5306122,30.9903846 24.3469388,34.65625 C24.638484,36.0384615 25.8629738,37 27.2040816,37 C27.4373178,37 27.6122449,37 27.845481,36.9399038 C29.4198251,36.5793269 30.4110787,35.0168269 30.0612245,33.3942308 C29.8279883,32.1923077 30.2361516,30.9302885 31.1690962,30.1490385 C36.2419825,27.6850962 37,24.1995192 37,22.2764423 C36.941691,16.5673077 32.451895,12 26.9708455,12 Z" id="Shape" fill="#000000" fill-rule="nonzero"></path>
    </g>
</svg>