<?xml version="1.0" encoding="UTF-8"?>
<svg width="17px" height="28px" viewBox="0 0 17 28" version="1.1" xmlns="http://www.w3.org/2000/svg" xmlns:xlink="http://www.w3.org/1999/xlink">
    <!-- Generator: Sketch 49.3 (51167) - http://www.bohemiancoding.com/sketch -->
    <title>Shape</title>
    <desc>Created with Sketch.</desc>
    <defs></defs>
    <g id="UI" stroke="none" stroke-width="1" fill="none" fill-rule="evenodd">
        <g id="Artboard" fill="#000000" fill-rule="nonzero">
            <path d="M11.1020408,25.2509091 C11.1020408,26.7781818 9.91253644,28 8.42565598,28 C6.93877551,28 5.74927114,26.7781818 5.74927114,25.2509091 C5.74927114,23.7236364 6.93877551,22.5018182 8.42565598,22.5018182 C9.91253644,22.5527273 11.1020408,23.7745455 11.1020408,25.2509091 Z M8.47521866,0 C3.81632653,0 0,3.86909091 0,8.70545455 C0,10.1309091 1.09037901,11.2509091 2.47813411,11.2509091 C3.86588921,11.2509091 4.95626822,10.1309091 4.95626822,8.70545455 C4.95626822,6.72 6.54227405,5.09090909 8.47521866,5.09090909 C10.4081633,5.09090909 11.9941691,6.72 11.9941691,8.70545455 C11.9941691,9.67272727 10.4081633,10.5381818 9.71428571,10.8436364 C9.56559767,10.8945455 9.41690962,10.9963636 9.31778426,11.0981818 C6.79008746,12.9309091 5.55102041,16.0872727 6.24489796,19.1927273 C6.49271137,20.3636364 7.5335277,21.1781818 8.67346939,21.1781818 C8.87172012,21.1781818 9.02040816,21.1781818 9.21865889,21.1272727 C10.5568513,20.8218182 11.3994169,19.4981818 11.1020408,18.1236364 C10.9037901,17.1054545 11.2507289,16.0363636 12.0437318,15.3745455 C16.3556851,13.2872727 17,10.3345455 17,8.70545455 C16.9504373,3.86909091 13.1341108,0 8.47521866,0 Z" id="Shape"></path>
        </g>
    </g>
</svg>