<?xml version="1.0" encoding="UTF-8"?>
<svg width="100px" height="100px" viewBox="0 0 100 100" version="1.1" xmlns="http://www.w3.org/2000/svg" xmlns:xlink="http://www.w3.org/1999/xlink">
    <!-- Generator: Sketch 49.3 (51167) - http://www.bohemiancoding.com/sketch -->
    <title>close</title>
    <desc>Created with Sketch.</desc>
    <defs></defs>
    <g id="close" stroke="none" stroke-width="1" fill="none" fill-rule="evenodd">
        <path d="M49.54,3.55271385e-14 C22.198,-0.019 0.027,22.375 0,49.973 C0.027,77.618 22.198,100.01 49.54,100 C76.892,100.01 99.061,77.618 99.082,49.973 C99.062,22.375 76.892,-0.019 49.54,3.55271385e-14 Z M49.54,88.477 C28.503,88.477 11.445,71.252 11.463,49.973 C11.442,28.741 28.503,11.51 49.54,11.521 C70.587,11.511 87.647,28.742 87.671,49.973 C87.647,71.252 70.587,88.477 49.54,88.477 Z" id="Shape" fill="#FFFFFF" fill-rule="nonzero"></path>
        <polygon id="Shape" fill="#FFFFFF" fill-rule="nonzero" points="71.57 37.466 62.073 27.97 49.54 40.504 37.006 27.97 27.509 37.466 40.047 50.007 27.509 62.534 37.006 72.03 49.54 59.496 62.073 72.03 71.57 62.534 59.036 50.007"></polygon>
    </g>
</svg>